<?xml version="1.0" encoding="iso-8859-1"?>
<!-- Generator: Adobe Illustrator 19.0.0, SVG Export Plug-In . SVG Version: 6.00 Build 0)  -->
<svg version="1.1" id="Capa_1" fill="#4fdfdf" xmlns="http://www.w3.org/2000/svg"
	xmlns:xlink="http://www.w3.org/1999/xlink" x="0px" y="0px" viewBox="0 0 502.224 502.224"
	style="enable-background:new 0 0 502.224 502.224;" xml:space="preserve">
	<g>
		<g>
			<g>
				<path d="M278.224,43.154c105.991,0.115,191.885,86.009,192,192h32C502.341,111.513,402.206,11.187,278.565,11.07
				C160.894,10.958,63.221,101.962,55.024,219.346l-32.4-32.4L0,209.554l68.8,68.8l68.8-68.8l-22.688-22.608l-27.536,27.536
				C98.034,117.082,180.242,43.282,278.224,43.154z" />
				<path d="M315.872,407.49l6.208,31.376c11.285-2.223,22.375-5.337,33.168-9.312l-11.008-30.032
				C335.003,402.904,325.519,405.568,315.872,407.49z" />
				<path d="M371.024,387.25l15.488,28c10.075-5.562,19.703-11.895,28.8-18.944l-19.616-25.28
				C387.896,377.053,379.648,382.477,371.024,387.25z" />
				<path d="M417.584,351.234l23.248,22c7.891-8.341,15.138-17.268,21.68-26.704l-26.288-18.224
				C430.597,336.408,424.366,344.072,417.584,351.234z" />
				<path d="M451.024,302.818l28.8,13.984c5.014-10.355,9.224-21.08,12.592-32.08l-30.608-9.344
				C458.924,284.788,455.318,293.962,451.024,302.818z" />
				<rect x="254.224" y="331.154" width="32" height="160" />
			</g>
		</g>
	</g>
	<g>
	</g>
	<g>
	</g>
	<g>
	</g>
	<g>
	</g>
	<g>
	</g>
	<g>
	</g>
	<g>
	</g>
	<g>
	</g>
	<g>
	</g>
	<g>
	</g>
	<g>
	</g>
	<g>
	</g>
	<g>
	</g>
	<g>
	</g>
	<g>
	</g>
</svg>