<?xml version="1.0" encoding="UTF-8"?>
<svg viewBox="0 0 429.21469 414.47272" xmlns="http://www.w3.org/2000/svg" xmlns:xlink="http://www.w3.org/1999/xlink">
 <defs>
  <filter id="b">
   <feGaussianBlur stdDeviation="2.64905"/>
  </filter>
  <filter id="ae">
   <feGaussianBlur stdDeviation="3.02429"/>
  </filter>
  <filter id="ac">
   <feGaussianBlur stdDeviation="1.83183"/>
  </filter>
  <filter id="z">
   <feGaussianBlur stdDeviation=".75629"/>
  </filter>
  <filter id="y">
   <feGaussianBlur stdDeviation=".97614"/>
  </filter>
  <filter id="x">
   <feGaussianBlur stdDeviation="1.71052"/>
  </filter>
  <filter id="aa">
   <feGaussianBlur stdDeviation="1.84857"/>
  </filter>
  <filter id="af" x="-.15705" y="-.03708" width="1.3141" height="1.0742">
   <feGaussianBlur stdDeviation="2.88125"/>
  </filter>
  <filter id="c" x="-.09533" y="-.1619" width="1.1907" height="1.3238">
   <feGaussianBlur stdDeviation="1.05551"/>
  </filter>
  <filter id="ad" x="-.11767" y="-.05065" width="1.2353" height="1.1013">
   <feGaussianBlur stdDeviation="3.02429"/>
  </filter>
  <filter id="ab" x="-.0209" y="-.12953" width="1.0418" height="1.2591">
   <feGaussianBlur stdDeviation="1.94818"/>
  </filter>
  <linearGradient id="a">
   <stop stop-color="#fff" offset="0"/>
   <stop stop-color="#fff" stop-opacity="0" offset="1"/>
  </linearGradient>
  <linearGradient id="t" x1="627.26" x2="506.3" y1="302.53" y2="572.27" gradientUnits="userSpaceOnUse">
   <stop stop-color="#fff" offset="0"/>
   <stop stop-color="#2f313c" stop-opacity="0" offset="1"/>
  </linearGradient>
  <linearGradient id="s" x1="210.62" x2="222.92" y1="280.3" y2="90.966" gradientUnits="userSpaceOnUse">
   <stop stop-color="#fff" stop-opacity="0" offset="0"/>
   <stop stop-color="#fff" stop-opacity=".59633" offset=".51505"/>
   <stop stop-color="#fff" stop-opacity="0" offset="1"/>
  </linearGradient>
  <linearGradient id="o" x1="249.77" x2="246.82" y1="428.8" y2="494.32" gradientUnits="userSpaceOnUse">
   <stop stop-color="#fff" offset="0"/>
   <stop stop-color="#101015" stop-opacity="0" offset="1"/>
  </linearGradient>
  <linearGradient id="n" x1="664.78" x2="719.21" y1="473.97" y2="566.53" gradientUnits="userSpaceOnUse">
   <stop stop-color="#1998c5" offset="0"/>
   <stop stop-color="#0f5e7a" offset="1"/>
  </linearGradient>
  <linearGradient id="m" x1="578.11" x2="534.98" y1="424.56" y2="654.91" gradientUnits="userSpaceOnUse">
   <stop stop-color="#2f3139" offset="0"/>
   <stop stop-color="#25262c" offset="1"/>
  </linearGradient>
  <linearGradient id="l" x1="353.14" x2="368.65" y1="526.59" y2="614.82" gradientUnits="userSpaceOnUse">
   <stop stop-color="#111215" offset="0"/>
   <stop stop-color="#323440" offset="1"/>
  </linearGradient>
  <linearGradient id="k" x1="485.28" x2="459.79" y1="527.31" y2="590.18" gradientUnits="userSpaceOnUse">
   <stop stop-color="#16181c" offset="0"/>
   <stop stop-color="#323440" offset="1"/>
  </linearGradient>
  <linearGradient id="j" x1="484.35" x2="446.12" y1="315.24" y2="513.83" gradientUnits="userSpaceOnUse">
   <stop stop-color="#2ad4ff" offset="0"/>
   <stop stop-color="#0d6f9d" offset="1"/>
  </linearGradient>
  <linearGradient id="i" x2="0" y1="424.32" y2="574.45" gradientUnits="userSpaceOnUse">
   <stop stop-color="#262932" offset="0"/>
   <stop stop-color="#191921" offset="1"/>
  </linearGradient>
  <linearGradient id="h" x1="660.83" x2="672.15" y1="513.59" y2="545.03" gradientUnits="userSpaceOnUse">
   <stop stop-color="#242730" offset="0"/>
   <stop stop-color="#17191e" offset="1"/>
  </linearGradient>
  <linearGradient id="g" x1="647.87" x2="726.8" y1="623.24" y2="646.6" gradientUnits="userSpaceOnUse">
   <stop stop-color="#2c2f36" offset="0"/>
   <stop stop-color="#191921" offset="1"/>
  </linearGradient>
  <linearGradient id="e" x1="712.09" x2="660.11" y1="559.81" y2="469.79" gradientUnits="userSpaceOnUse">
   <stop stop-color="#000080" offset="0"/>
   <stop stop-color="#000080" stop-opacity="0" offset="1"/>
  </linearGradient>
  <linearGradient id="d" x1="459.21" x2="287.9" y1="468.31" y2="168.66" gradientUnits="userSpaceOnUse">
   <stop offset="0"/>
   <stop stop-opacity="0" offset="1"/>
  </linearGradient>
  <linearGradient id="w" x1="483.66" x2="363.59" y1="153.85" y2="362.46" gradientUnits="userSpaceOnUse" xlink:href="#a"/>
  <linearGradient id="v" x1="488.49" x2="440.22" y1="49.587" y2="427.05" gradientUnits="userSpaceOnUse" xlink:href="#a"/>
  <linearGradient id="u" x1="294.5" x2="359.83" y1="267.01" y2="513.73" gradientUnits="userSpaceOnUse" xlink:href="#a"/>
  <linearGradient id="r" x1="477.7" x2="477.84" y1="240.71" y2="225.96" gradientUnits="userSpaceOnUse" xlink:href="#a"/>
  <linearGradient id="q" x1="472.1" x2="481.04" y1="251.1" y2="219.57" gradientUnits="userSpaceOnUse" xlink:href="#a"/>
  <linearGradient id="p" x1="421.12" x2="390.41" y1="503.15" y2="140.16" gradientUnits="userSpaceOnUse" xlink:href="#a"/>
  <linearGradient id="f" x1="241.32" x2="346.98" y1="336.57" y2="363.8" gradientUnits="userSpaceOnUse" xlink:href="#a"/>
 </defs>
 <g transform="translate(-325.71 -269.18)">
  <path d="m594.33 285.87c2.3355-1.5868 5.3763-4.5972 16.113-0.76279 32.079 9.1374 33.882 26.31 34.509 69.786 0 14.571 8.4356 81.289 12.27 85.123s0 16.104 0 16.104l59.816 116.57 6.135 4.6012s16.871 30.675 21.473 37.577 9.9694 5.3681 5.3681 13.804-12.27 11.503-12.27 11.503-7.6688 16.871-15.338 13.804-40.767-42.316-40.767-42.316c-11.796-24.936-56.794-72.831-54.878-104.85 0 0-1.7486-138.88-3.2823-149.62s-6.135-53.681-18.405-59.816-10.744-11.507-10.744-11.507z" fill="url(#h)" stroke="#000" stroke-width=".71016"/>
  <path d="m590.74 285.42c-11.556-2.3112-73.457-19.182-120.45-15.33s-77.811 15.408-97.071 24.653c-5.9746 2.8678-36.269 53.809-44.743 164.75s7.7638 158.05 10.845 163.44 16.178 34.668 61.632 43.913 114.02 13.867 114.02 13.867 28.505 1.5408 43.913-4.6224 31.955-10.068 36.577-10.068 23.181-11.077 27.734-20.03c6.1976-12.186 5.7952-38.467 5.0248-42.319s-3.852-9.2448-3.852-9.2448 5.3928-3.0816 3.852-7.704 7.704-167.95 0.7704-221.11c-3.1201-31.591-2.7099-70.867-38.252-80.2z" fill="url(#i)" stroke="#000" stroke-width=".71016"/>
  <path d="m374.81 299.6s-32.967 26.551-41.113 176.14c-1.7391 31.937 4.74 76.277 8.2053 95.092 7.7085 41.855 24.525 42.203 31.729 45.029s59.251 12.352 77.485 12.481c10.608 0.0752 31.243 6.2856 39.955-14.016 8.9827-20.932 31.843-122.93 34.805-154.03s14.81-111.82 15.551-115.52 1.481-23.697 11.848-31.102 39.248-19.254 39.248-19.254-26.535-10.937-66.626-16.444c-51.181-7.0301-121.19-6.6093-151.09 21.628z" fill="url(#j)" stroke="#1a1a1a" stroke-width=".71016"/>
  <path transform="matrix(.71016 0 0 .71016 261.51 342.13)" d="m360.71 249.26 77.95 53.495-3.0569 33.625s-5.3495 68.779-9.1706 71.072-9.1706 1.5284-9.1706 1.5284-67.251-84.063-68.779-90.177 12.227-69.543 12.227-69.543z" fill="url(#w)" filter="url(#b)" opacity=".37168"/>
  <path transform="matrix(.71016 0 0 .71016 261.51 342.13)" d="m440.95 432.67c4.5853 0 12.227-4.5853 13.756-9.1706 10.357-13.492 18.637-57.222 20.284-73.467 6.7829 5.0476 24.864 12.796 33.235 18.689s5.6452 29.185 6.0353 35.049c2.5591-8.6071 4.6396-30.709 0.81856-37.587s-56.552-43.56-56.552-43.56c-2.6076-0.93322-6.0577-3.3409-5.3495 1.5284 0 0-7.6421 76.421-10.699 84.063s-11.463 24.455-7.6421 25.219 6.1137-0.76421 6.1137-0.76421z" fill="url(#v)" filter="url(#b)" opacity=".21681"/>
  <path d="m519.41 520.35 54.16 36.244" fill="none" stroke="#333" stroke-dasharray="4.26098076, 4.26098076" stroke-width=".71016"/>
  <path d="m583.99 568.2 42.227 31.811" fill="none" stroke="#333" stroke-dasharray="2.84065384, 2.84065384" stroke-width=".71016"/>
  <path d="m522.13 512.86 51.44 35.591" fill="none" stroke="#333" stroke-dasharray="2.84065384, 2.84065384" stroke-width=".71016"/>
  <path d="m585.39 561.91 37.022 27.247" fill="none" stroke="#333" stroke-dasharray="2.84065384, 2.84065384" stroke-width=".71016"/>
  <path d="m565.43 311.29s-11.94 0-17.91 21.166-19.538 145.99-20.623 155.22-16.824 77.066-18.452 83.036-9.7689 43.96-14.653 49.93-7.598 11.397-15.196 13.025-59.699-4.3417-82.493-8.6835-36.362-11.94-37.99-13.568l-1.6282-1.6282" fill="none" stroke="#333" stroke-dasharray="2.84065384, 2.84065384" stroke-width=".71016"/>
  <path d="m593.11 293.92s9.2262 3.2563 12.482 8.1407 9.7689 20.623 12.482 46.674 6.5126 113.43 7.598 125.91 1.0854 87.377-1.0854 96.603-1.6281 17.367-1.6281 17.367" fill="none" stroke="#333" stroke-dasharray="2.84065384, 2.84065384" stroke-width=".71016"/>
  <path d="m519.92 495.74-82.723 41.756s-7.8784 3.9392-7.8784 12.605v75.633s29.096 3.2617 34.076 3.425c14.668 0.48106 22.682-4.1437 27.616-14.972 2.4881-5.4598 16.304-60.935 17.88-66.449s11.03-51.998 11.03-51.998z" fill="url(#k)" stroke="#333" stroke-width=".71016"/>
  <path d="m334.28 498.01c9.3512 10.306 31.904 20.96 47.508 32.897 8.8278 6.7532 11.291 12.578 11.163 18.58-0.77312 13.304 0.95688 70.323 0.95688 70.323s-27.987-4.5682-36.105-11.335c-13.143-10.956-17.781-61.04-21.647-81.387s-1.876-29.078-1.876-29.078z" fill="none" stroke="#000" stroke-width=".70113"/>
  <path d="m333.2 496.53c9.5294 10.375 32.175 21.766 48.077 33.783 8.996 6.7986 11.507 12.663 11.376 18.705-0.78784 13.393 1.0329 70.608 1.0329 70.608s-28.578-4.4106-36.85-11.223c-13.393-11.03-18.12-61.452-22.06-81.936s-1.5757-29.938-1.5757-29.938z" fill="url(#l)"/>
  <path d="m454.86 286.7s-13.55 7.3193-19.51 31.157c-6.337 18.903-13.105 40.893-9.6248 47.639 0 0 8.7909 3.6998 1.679 6.0538-10.145 3.358-11.907 39.799-14.248 54.31s-8.5958 63.243-9.2816 114.44c-0.28908 21.58-2.5325 79.09-0.54607 81.739 4.7432 1.3621 17.549 2.7087 17.549 2.7087-2.0433-12.576-1.3119-75.345 3.0285-130.16 3.1139-39.327 8.0426-68.994 10.037-79.525 2.8688-15.147 3.4804-34.499 10.062-37.294 8.0771-3.4305-1.0168-7.9458-1.0168-15.892s8.5135-42.295 16.944-59.676c5.7793-11.915 16.778-15.501 16.778-15.501z" fill="#21242b" stroke="#1a1a1a" stroke-width=".71016"/>
  <path transform="matrix(.71016 0 0 .71016 94.399 198.15)" d="m339.61 426.5s-3.0575 12.23 2.0383 38.727c4.9464 25.722 10.854 87.911 27.043 104.58-4.9468-10.121-7.6938-21.357-7.6938-33.187 0-28.214 15.666-53.054 39.388-67.464-20.48-15.165-48.722-29.537-60.775-42.661z" fill="url(#u)" filter="url(#ad)"/>
  <path transform="matrix(.71016 0 0 .71016 94.399 198.15)" d="m595.33 424.74-109.43 55.238s-10.422 5.2111-10.422 16.676 3.8616 70.126 3.8616 70.126 38.49 4.3148 45.078 4.5309c19.404 0.63639 30.005-5.4817 36.533-19.806 3.2914-7.2227 17.707-50.682 19.791-57.978s14.591-68.787 14.591-68.787z" fill="url(#t)" filter="url(#ae)" stroke="#333"/>
  <path d="m370.6 300.43s27.679-16.824 79.779-14.653 104.2 8.1408 116.14 22.794 10.854 88.463 11.397 94.433c0.25444 2.7988 3.1144 36.825 1.4726 78.709-1.8601 47.454-8.5753 105.3-14.498 144.89-5.7974 38.751-34.473 43.766-68.911 41.571-26.816-1.7096-59.263-6.9369-73.281-9.5504s-63.901-6.7179-82.493-41.246c-8.5645-15.906-11.94-59.699-11.94-59.699s-0.54271 48.302 8.1407 65.669 24.887 29.677 43.96 37.447c29.307 11.94 100.4 19.024 119.94 20.08 20.303 1.0978 42.919-4.6354 48.844-7.598 8.6835-4.3417 20.623-19.538 24.965-35.277s21.709-157.93 18.452-200.8-5.4272-113.43-10.312-124.82c-3.3257-7.76-22.404-25.73-84.664-32.563-60.999-6.6944-99.86 2.7136-105.29 4.8844s-21.709 15.739-21.709 15.739z" fill="url(#m)" stroke="#1a1a1a" stroke-dasharray="2.13049038, 2.13049038" stroke-width=".71016"/>
  <path d="m750.15 619.63c1.3417 5.9038 2.4151 9.9291-0.80511 13.686s-14.759 11.271-16.638 16.37-4.8304 9.6607-8.5874 12.613-5.6354 4.2936-9.6607 2.6835-66.82-17.443-75.139-18.785c-9.5906-0.35587-15.17-5.0288-13.418-12.344 1.3418-5.0987 5.6354-23.347 6.7088-25.225s6.1721-4.0253 9.3923-2.6835 36.228 4.562 55.281 11.808 35.691 20.126 38.375 20.932 9.3923-2.9519 12.076-6.9772 2.4152-12.076 2.4152-12.076z" fill="url(#g)" stroke="#000" stroke-width=".71016"/>
  <path transform="matrix(.59461 0 0 .71016 287.22 342.13)" d="m216.75 92.375c-1.2365 9.9333-2.1993 19.213-3.2188 25.531-3.2935 20.412-12.082 88.92-13.062 160.94h24.281c0.9338-21.114 2.2344-43.041 3.9062-64.156 4.3847-55.377 11.348-97.171 14.156-112 0.63081-3.3306 1.1676-6.8045 1.6875-10.312h-27.75z" fill="url(#s)" filter="url(#af)"/>
  <path transform="matrix(.71016 0 0 .71016 94.399 198.15)" d="m467.03 218s-1.8966 5.4528-1.6595 9.4831 0.4741 4.7416 0.4741 4.7416l24.656 1.4225s-0.2371-4.0303 0.2371-6.4011 1.1854-9.246 1.1854-9.246z" fill="url(#r)" filter="url(#c)" opacity=".5"/>
  <path transform="matrix(.70414 .09227 .09227 -.70414 71.487 499.82)" d="m465.45 216.62s0.59297 7.3432 0.83007 11.373-0.43662 4.2312-0.43662 4.2312l26.326 3.5965s-1.9074-6.2044-1.4332-8.5752-1.7642-10.61-1.7642-10.61z" fill="url(#q)" filter="url(#c)" opacity=".5"/>
  <path transform="matrix(.71016 0 0 .71016 261.51 342.13)" d="m394.8 97.389s-14.257 127.21-17.546 134.89 13.16 16.45 13.16 16.45l48.253 36.19 3.29-58.123s-58.123-18.643-47.156-129.41z" fill="url(#p)" filter="url(#ac)" opacity=".2" stroke="#333"/>
  <path transform="matrix(.71016 0 0 .71016 261.51 342.13)" d="m157.15 440.13s11.824 10.838 36.948 15.765 49.757 10.346 49.757 10.346 94.095 11.331 101.98 9.8529 31.037-3.4485 34.978-6.4044c-95.971-0.48051-127.79-4.2306-223.66-29.559z" fill="url(#o)" filter="url(#ab)" opacity=".5"/>
  <path d="m411.3 623.89c-1.0415 1.5623 4.7305 22.039 11.515 31.354 3.5126 4.8228 7.8202 5.7954 7.8202 5.7954-0.1205 0.0201-0.40425 9.7119 7.5282 12.46 5.5469 1.9218 12.213 1.9487 12.213 1.9487s-12.501-4.2837-14.015-7.9694c-0.82524-2.0079-1.7043-6.7601-1.7043-6.7601-10.63-5.0871-16.074-18.846-19.557-36.286z" fill="#101015" stroke="#262626" stroke-dasharray="2.84065384, 2.84065384" stroke-width=".71016"/>
  <path transform="translate(325.71 269.18)" d="m303.39 367.73s2.0718-25.45 8.5128-28.4c4.0599-1.8597 16.308 1.5195 20.903 2.2854s35.555 10.057 35.555 10.057-45.673-12.332-49.553-3.4905c-3.5598 8.1102-6.2839 14.207-5.4618 18.244 1.3377 6.5691 8.2994 8.2214 8.2994 8.2214s-18.142-1.3059-18.255-6.9168z" fill="url(#f)" filter="url(#z)" opacity=".3"/>
  <path d="m658.94 441.68s-6.0817 5.7558-5.8648 12.399c0.3007 9.2103 49.131 119.46 61.656 123.52 5.9809 1.9374 10.085 0.47094 10.085 0.47094-6.2931 1.0296-67.395-130.01-65.876-136.39z" fill="url(#n)"/>
  <path d="m658.8 445.3s-4.5873 5.2183-4.4237 11.241c0.22681 8.3501 48.485 113.86 57.932 117.53 4.5112 1.7565 7.6072 0.42696 7.6072 0.42696-4.7467 0.93348-62.261-123.42-61.116-129.2z" fill="url(#e)" filter="url(#y)" opacity=".5"/>
  <path transform="translate(325.71 269.18)" d="m309.35 191-2.3239 65.301s14.921 30.735 42.624 71.366c3.1131 4.5659 8.5176 14.644 12.158 15.474 12.743 2.9063 16.476 4.6715 16.476 4.6715s-58.776-86.632-62.469-100.48-6.464-56.329-6.464-56.329z" fill="url(#d)" filter="url(#x)"/>
  <path transform="matrix(.71016 0 0 .71016 261.41 342.13)" d="m482.12-82.375c-3.8976 0.3045-6.1043 2.1434-12.044 3.6282 2.3959 0.81656 2.6485 1.4199 4.5408 2.0734 8.4292-2.7692 1.3678-4.5867 15.753 0.76714 42.981 12.758 45.41 36.734 46.25 97.438 0 20.344 11.3 113.52 16.438 118.88s0 22.469 0 22.469l80.125 162.75 8.2188 6.4375s22.616 42.832 28.781 52.469c6.165 9.6368 13.352 7.5029 7.1875 19.281-14.15 12.097-12.046 21.071 10.5-0.34375 6.4792-11.878-1.0833-9.7188-7.5625-19.438s-30.25-52.906-30.25-52.906l-8.625-6.4688-84.219-164.16s5.3993-17.257 0-22.656-17.281-99.358-17.281-119.88c-0.88322-61.22-3.4227-85.383-48.594-98.25-4.7244-1.6873-7.4471-2.2322-9.2188-2.0938z" fill="#fff" filter="url(#aa)" opacity=".2"/>
 </g>
</svg>
