<svg width="1280" height="720" viewBox="0 0 1280 720" fill="none" xmlns="http://www.w3.org/2000/svg">
    <g clip-path="url(#clip0)">
        <path
            d="M584.984 -2H0V720H1291V417.275C1261.41 321.748 1168.76 152.087 1034.82 237.658C900.876 323.228 679.12 113.54 584.984 -2Z"
            fill="#0047FF" />
        <path
            d="M584.984 -2H0V720H1291V417.275C1261.41 321.748 1168.76 152.087 1034.82 237.658C900.876 323.228 679.12 113.54 584.984 -2Z"
            fill="url(#paint0_linear)" />
        <path
            d="M568 29H-12V720H1268V430.273C1238.67 338.847 1146.8 176.471 1014 258.368C881.2 340.264 661.333 139.579 568 29Z"
            fill="#0047FF" />
        <path
            d="M568 29H-12V720H1268V430.273C1238.67 338.847 1146.8 176.471 1014 258.368C881.2 340.264 661.333 139.579 568 29Z"
            fill="url(#paint1_linear)" />
    </g>
    <defs>
        <linearGradient id="paint0_linear" x1="917.82" y1="284.076" x2="38.1828" y2="679.317"
            gradientUnits="userSpaceOnUse">
            <stop stop-color="#1DAEFF" />
            <stop offset="1" stop-color="white" stop-opacity="0" />
        </linearGradient>
        <linearGradient id="paint1_linear" x1="898" y1="302.793" x2="36.4528" y2="703.826"
            gradientUnits="userSpaceOnUse">
            <stop stop-color="#34B6FF" />
            <stop offset="1" stop-color="white" stop-opacity="0" />
        </linearGradient>
        <clipPath id="clip0">
            <rect width="1280" height="720" fill="white" />
        </clipPath>
    </defs>
</svg>